{"title":"20th Annual Life Ok Screen Awards [Main Event] 25th Jan 2014 HD","uid":9525241,"size":1177893820,"categoryP":"video","categoryS":"tv_shows","magnet":"?xt=urn:btih:94e4b4dfd5941f968ef9e058a4b6350eac485d24&amp;dn=20th+Annual+Life+Ok+Screen+Awards+%5BMain+Event%5D+25th+Jan+2014+HD+&amp;tr=udp%3A%2F%2Ftracker.openbittorrent.com%3A80&amp;tr=udp%3A%2F%2Fopen.demonii.com%3A1337&amp;tr=udp%3A%2F%2Ftracker.coppersurfer.tk%3A6969&amp;tr=udp%3A%2F%2Fexodus.desync.com%3A6969","seeders":1,"leechers":0,"uploader":"ashish.p","files":1,"time":1390694991,"description":"General \nComplete name : D:20th Annual Life Ok Screen Awards [Main Event] 25th Jan 2014 HD 720p.FLV \nFormat : Flash Video \nFile size : 1.10 GiB \nDuration : 2h 36mn \nOverall bit rate : 1 004 Kbps \nWriting application : Lavf53.24.2 \n\nVideo \nFormat : AVC \nFormat/Info : Advanced Video Codec \nFormat profile : &lt;a class=&quot;__cf_email__&quot; href=&quot;/cdn-cgi/l/email-protection&quot; data-cfemail=&quot;cf87a6a8a78f83fce1fe&quot;&gt;[email&amp;#160;protected]&lt;/a&gt;&lt;script cf-hash='f9e31' type=&quot;text/javascript&quot;&gt;\n/* &lt;![CDATA[ */!function(){try{var t=&quot;currentScript&quot;in document?document.currentScript:function(){for(var t=document.getElementsByTagName(&quot;script&quot;),e=t.length;e--;)if(t[e].getAttribute(&quot;cf-hash&quot;))return t[e]}();if(t&amp;&amp;t.previousSibling){var e,r,n,i,c=t.previousSibling,a=c.getAttribute(&quot;data-cfemail&quot;);if(a){for(e=&quot;&quot;,r=parseInt(a.substr(0,2),16),n=2;a.length-n;n+=2)i=parseInt(a.substr(n,2),16)^r,e+=String.fromCharCode(i);e=document.createTextNode(e),c.parentNode.replaceChild(e,c)}}}catch(u){}}();/* ]]&gt; */&lt;/script&gt; \nFormat settings, CABAC : Yes \nFormat settings, ReFrames : 4 frames \nCodec ID : 7 \nDuration : 2h 36mn \nBit rate : 777 Kbps \nWidth : 1 280 pixels \nHeight : 720 pixels \nDisplay aspect ratio : 16:9 \nFrame rate mode : Constant \nFrame rate : 1 000.000 fps \nColor space : YUV \nChroma subsampling : 4:2:0 \nBit depth : 8 bits \nScan type : Progressive \nBits/(Pixel*Frame) : 0.001 \nStream size : 869 MiB (77%) \nWriting library : x264 core 138 \n\n\nAudio \nFormat : AAC \nFormat/Info : Advanced Audio Codec \nFormat profile : LC \nCodec ID : 10 \nDuration : 2h 36mn \nBit rate : 191 Kbps \nChannel(s) : 2 channels \nChannel positions : Front: L R \nSampling rate : 44.1 KHz \nCompression mode : Lossy \nStream size : 213 MiB (19%) \n","torrent":{"xt":"urn:btih:94e4b4dfd5941f968ef9e058a4b6350eac485d24","amp;dn":"20th+Annual+Life+Ok+Screen+Awards+%5BMain+Event%5D+25th+Jan+2014+HD+","amp;tr":["udp%3A%2F%2Ftracker.openbittorrent.com%3A80","udp%3A%2F%2Fopen.demonii.com%3A1337","udp%3A%2F%2Ftracker.coppersurfer.tk%3A6969","udp%3A%2F%2Fexodus.desync.com%3A6969"],"infoHash":"94e4b4dfd5941f968ef9e058a4b6350eac485d24","infoHashBuffer":{"type":"Buffer","data":[148,228,180,223,213,148,31,150,142,249,224,88,164,182,53,14,172,72,93,36]},"announce":[],"urlList":[]}}